<svg width="150" height="60" viewBox="0 0 150 60" fill="none" xmlns="http://www.w3.org/2000/svg">
<path d="M49.5398 48.9633C49.5398 49.1031 49.4254 49.2047 49.2856 49.2047H44.4956C44.61 50.3863 45.512 51.4664 46.7572 51.4664C47.6085 51.4664 48.2438 51.136 48.7266 50.4499C48.7901 50.361 48.9045 50.2974 49.0316 50.3483C49.1078 50.3736 49.1586 50.4499 49.1713 50.5261C49.184 50.6023 49.1586 50.6532 49.1459 50.6913C48.663 51.5299 47.7101 51.9492 46.7572 51.9492C45.1436 51.9492 44.0001 50.5134 44.0001 48.9633C44.0001 47.4132 45.1436 45.9775 46.7572 45.9775C48.3708 45.9902 49.5271 47.4259 49.5398 48.9633ZM49.0188 48.7346C48.9172 47.553 48.0024 46.473 46.7572 46.473C45.4993 46.473 44.61 47.553 44.4956 48.7346H49.0188ZM55.3463 46.1173C55.486 46.1173 55.5877 46.2316 55.5877 46.3586C55.5877 46.4984 55.486 46.6 55.3463 46.6H54.063V51.6315C54.063 51.7459 53.9614 51.8729 53.8216 51.8729C53.6818 51.8729 53.5802 51.7586 53.5802 51.6315V46.5873H52.3477C52.208 46.5873 52.1063 46.4857 52.1063 46.346C52.1063 46.2316 52.208 46.1045 52.3477 46.1045H53.5802V44.2622C53.5802 44.1478 53.6564 44.0335 53.7708 44.0208C53.9359 43.9954 54.063 44.1097 54.063 44.2622V46.1173H55.3463ZM63.1857 48.5441V51.5934C63.1857 51.7332 63.0714 51.8348 62.9443 51.8348C62.8046 51.8348 62.7029 51.7332 62.7029 51.5934V48.5441C62.7029 47.5149 62.1184 46.4857 60.9749 46.4857C59.501 46.4857 58.8658 47.769 58.9547 49.0904C58.9547 49.1285 58.9674 49.281 58.9674 49.2937V51.5807C58.9674 51.6951 58.8912 51.8094 58.7768 51.8221C58.6117 51.8475 58.4846 51.7332 58.4846 51.5807V41.5559C58.4846 41.4415 58.5863 41.3145 58.726 41.3145C58.8658 41.3145 58.9674 41.4288 58.9674 41.5559V47.2353C59.374 46.4984 60.1109 46.0029 60.9749 46.0029C62.3726 46.0156 63.1857 47.248 63.1857 48.5441ZM71.7748 48.9633C71.7748 49.1031 71.6603 49.2047 71.5209 49.2047H66.7306C66.845 50.3863 67.7471 51.4664 68.9922 51.4664C69.8435 51.4664 70.4788 51.136 70.9616 50.4499C71.0252 50.361 71.1395 50.2974 71.2664 50.3483C71.3426 50.3736 71.3939 50.4499 71.4063 50.5261C71.4193 50.6023 71.3939 50.6532 71.3809 50.6913C70.8981 51.5299 69.9452 51.9492 68.9922 51.9492C67.3786 51.9492 66.2351 50.5134 66.2351 48.9633C66.2351 47.4132 67.3786 45.9775 68.9922 45.9775C70.6059 45.9902 71.7623 47.4259 71.7748 48.9633ZM71.254 48.7346C71.1522 47.553 70.2374 46.473 68.9922 46.473C67.7471 46.473 66.845 47.553 66.7306 48.7346H71.254ZM77.6447 46.3333C77.6447 46.4857 77.5561 46.5746 77.4162 46.5873C76.0056 46.7906 75.3707 47.9469 75.3707 49.281V51.568C75.3707 51.6824 75.294 51.7967 75.18 51.8094C75.0147 51.8348 74.8878 51.7205 74.8878 51.568V46.346C74.8878 46.2316 74.9639 46.1173 75.0785 46.1045C75.2433 46.0791 75.3707 46.1935 75.3707 46.346V47.4132C75.7646 46.7398 76.5523 46.1045 77.3778 46.1045C77.5053 46.1173 77.6447 46.2062 77.6447 46.3333ZM85.5223 48.9633C85.5223 49.1031 85.4082 49.2047 85.2683 49.2047H80.4784C80.5924 50.3863 81.4946 51.4664 82.7399 51.4664C83.5913 51.4664 84.2267 51.136 84.7092 50.4499C84.7729 50.361 84.8869 50.2974 85.0144 50.3483C85.0906 50.3736 85.1414 50.4499 85.1538 50.5261C85.1667 50.6023 85.1414 50.6532 85.1284 50.6913C84.6459 51.5299 83.6929 51.9492 82.7399 51.9492C81.1261 51.9492 79.9829 50.5134 79.9829 48.9633C79.9829 47.4132 81.1261 45.9775 82.7399 45.9775C84.3537 45.9902 85.5098 47.4259 85.5223 48.9633ZM85.0014 48.7346C84.8999 47.553 83.9852 46.473 82.7399 46.473C81.4946 46.473 80.5924 47.553 80.4784 48.7346H85.0014ZM93.2474 46.3967V51.6315C93.2474 51.7713 93.1329 51.8729 93.0059 51.8729C92.8665 51.8729 92.7644 51.7713 92.7644 51.6315V50.6405C92.3706 51.4282 91.672 52 90.7698 52C89.3467 52 88.559 50.7675 88.559 49.4588V46.384C88.559 46.2697 88.6606 46.1427 88.8005 46.1427C88.9405 46.1427 89.042 46.257 89.042 46.384V49.4588C89.042 50.488 89.6266 51.5172 90.7698 51.5172C92.3835 51.5172 92.7644 50.0052 92.7644 48.3408V46.384C92.7644 46.2443 92.9044 46.1045 93.0697 46.1553C93.1842 46.1935 93.2474 46.2824 93.2474 46.3967ZM105.369 48.5313V51.6061C105.369 51.7459 105.254 51.8475 105.127 51.8475C104.988 51.8475 104.886 51.7459 104.886 51.6061V48.5313C104.886 47.5022 104.302 46.4857 103.158 46.4857C101.722 46.4857 101.163 48.0231 101.163 49.2301V51.5934C101.163 51.7332 101.049 51.8348 100.922 51.8348C100.782 51.8348 100.68 51.7332 100.68 51.5934V48.5186C100.68 47.4895 100.096 46.473 98.9526 46.473C97.4912 46.473 96.8942 47.6165 96.945 49.1539C96.945 49.192 96.9574 49.2556 96.945 49.2683V51.5807C96.945 51.6951 96.8688 51.8094 96.7543 51.8221C96.5889 51.8475 96.462 51.7332 96.462 51.5807V46.346C96.462 46.2316 96.5382 46.1173 96.6527 46.1045C96.818 46.0791 96.945 46.1935 96.945 46.346V47.2226C97.3512 46.4857 98.0882 46.0029 98.9526 46.0029C99.931 46.0029 100.68 46.6255 100.998 47.5276C101.392 46.6382 102.167 46.0029 103.158 46.0029C104.556 46.0156 105.369 47.2226 105.369 48.5313Z" fill="#C5C5C5"/>
<g opacity="0.6">
<g opacity="0.6">
<path opacity="0.6" d="M75.3985 19.0624L66.2297 23.2282L75.3985 28.6498L84.5674 23.2282L75.3985 19.0624Z" fill="white"/>
</g>
</g>
<g opacity="0.45">
<g opacity="0.45">
<path opacity="0.45" d="M66.2097 23.2283L75.3786 28.6499V8L66.2097 23.2283Z" fill="white"/>
</g>
</g>
<g opacity="0.8">
<g opacity="0.8">
<path opacity="0.8" d="M75.3986 8V28.6499L84.5675 23.2283L75.3986 8Z" fill="white"/>
</g>
</g>
<g opacity="0.45">
<g opacity="0.45">
<path opacity="0.45" d="M66.2097 24.9623L75.3786 37.8984V30.384L66.2097 24.9623Z" fill="white"/>
</g>
</g>
<g opacity="0.8">
<g opacity="0.8">
<path opacity="0.8" d="M75.3986 30.384V37.8984L84.5874 24.9623L75.3986 30.384Z" fill="white"/>
</g>
</g>
</svg>
