<svg width="150" height="60" viewBox="0 0 150 60" fill="none" xmlns="http://www.w3.org/2000/svg">
<path d="M97 30C97 42.1538 87.1538 52 75 52C62.8462 52 53 42.1538 53 30C53 17.8462 62.8462 8 75 8C87.1538 8 97 17.8462 97 30Z" fill="#345D9D"/>
<path d="M92.3232 30C92.3232 39.5692 84.5694 47.323 75.0001 47.323C65.4309 47.323 57.677 39.5692 57.677 30C57.677 20.4307 65.4309 12.6769 75.0001 12.6769C84.5694 12.6769 92.3232 20.4307 92.3232 30Z" fill="#345D9D"/>
<path d="M73.7073 35.877L75.1381 30.4923L78.5227 29.2616L79.3689 26.0923L79.3381 26.0154L76.015 27.2308L78.415 18.2H71.615L68.4765 29.9846L65.8612 30.9385L64.9996 34.2L67.6151 33.2462L65.7689 40.2H83.8767L85.0305 35.877H73.7073Z" fill="white"/>
</svg>
