<svg width="29" height="28" viewBox="0 0 29 28" fill="none" xmlns="http://www.w3.org/2000/svg">
<path d="M13.3635 2.63672C6.42475 2.63672 0.799988 8.26148 0.799988 15.2003C0.799988 22.1391 6.42475 27.7638 13.3635 27.7638C20.3023 27.7638 25.9271 22.1391 25.9271 15.2003C25.9271 8.26148 20.3023 2.63672 13.3635 2.63672ZM13.3386 22.2167C9.46366 22.2167 6.32225 19.0753 6.32225 15.2003C6.32225 11.3253 9.46366 8.18387 13.3386 8.18387C17.2136 8.18387 20.355 11.3253 20.355 15.2003C20.355 19.0753 17.2136 22.2167 13.3386 22.2167Z" fill="#FF2400"/>
<path d="M13.3531 18.5399C15.1663 18.5399 16.6362 17.07 16.6362 15.2568C16.6362 13.4436 15.1663 11.9737 13.3531 11.9737C11.5399 11.9737 10.07 13.4436 10.07 15.2568C10.07 17.07 11.5399 18.5399 13.3531 18.5399Z" fill="#FF2400"/>
<path d="M28.5147 4.37595C28.3704 4.02667 28.0292 3.7993 27.6516 3.7993H24.7869V0.934607C24.7869 0.557064 24.56 0.215798 24.2103 0.0715303C23.861 -0.074425 23.4594 0.00783303 23.192 0.274012L19.4553 4.07307C19.2803 4.24813 19.1816 4.4852 19.1816 4.73366V8.08347L12.8536 14.4114C12.6613 14.5827 12.5419 14.8333 12.5419 15.1108C12.5419 15.6267 12.9603 16.0452 13.4762 16.0452C13.7614 16.0452 13.9782 15.9014 14.1896 15.7174L20.5023 9.40466H23.8522C24.1002 9.40466 24.3377 9.30595 24.5127 9.13089L28.3118 5.39426C28.5792 5.12682 28.6594 4.72565 28.5143 4.37595H28.5147Z" fill="#04CFAA"/>
</svg>
