<svg width="150" height="60" viewBox="0 0 150 60" fill="none" xmlns="http://www.w3.org/2000/svg">
<path d="M52.714 40.3986V42.9366H55.1827V44.8374H52.7025V48.7086C52.7025 49.5661 53.1777 49.9835 53.8614 49.9835C54.2092 49.9835 54.6032 49.8791 54.9277 49.717L55.542 51.6059C54.9044 51.861 54.383 51.9652 53.7108 51.9885C51.7753 52.0579 50.5003 50.9571 50.5003 48.7201V44.8607H48.8313V42.9599H50.5003V40.6535L52.714 40.3986ZM95.2603 42.8209L95.4229 43.8523C96.1184 42.7513 97.0336 42.5774 97.9495 42.5774C98.8764 42.5774 99.7576 42.9366 100.256 43.4234L99.259 45.3475C98.8071 44.9649 98.3897 44.768 97.6596 44.768C96.5009 44.768 95.4229 45.3823 95.4229 47.0396V51.7568H93.209V42.8094L95.2603 42.8209ZM89.8364 46.2514C89.6976 45.0924 88.7816 44.513 87.5182 44.513C86.325 44.513 85.3396 45.0924 85.0149 46.2514H89.8364ZM84.9688 48.0828C85.1076 49.1838 86.0697 49.9835 87.6342 49.9835C88.4457 49.9835 89.5235 49.6706 90.0335 49.149L91.4475 50.5512C90.5088 51.5248 88.967 52 87.5996 52C84.5169 52 82.6855 50.0993 82.6855 47.2249C82.6855 44.5014 84.5402 42.5428 87.4376 42.5428C90.4276 42.5428 92.3051 44.397 91.9576 48.0712H84.9688V48.0828ZM75.21 39.0657V44.0377C76.0094 43.0063 76.9835 42.6934 78.0034 42.6934C80.5415 42.6934 81.6656 44.4203 81.6656 47.0511V51.7683H79.4522V47.0744C79.4522 45.4402 78.5941 44.7562 77.4234 44.7562C76.1141 44.7562 75.21 45.8573 75.21 47.2019V51.7683H72.9961V39.0657H75.21ZM69.3341 40.2943V42.8324H71.8028V44.7332H69.3221V48.5926C69.3221 49.4501 69.7973 49.8675 70.4815 49.8675C70.8287 49.8675 71.2228 49.7633 71.5475 49.601L72.1621 51.4902C71.5242 51.745 71.0029 51.8495 70.3307 51.8725C68.3954 51.9422 67.1202 50.8411 67.1202 48.6044V44.7447H65.4514V42.8439H67.1202V40.5377L69.3341 40.2943ZM63.2259 46.2514C63.0869 45.0924 62.1715 44.513 60.908 44.513C59.7143 44.513 58.7292 45.0924 58.4048 46.2514H63.2259ZM58.3582 48.0828C58.4975 49.1838 59.4592 49.9835 61.024 49.9835C61.8353 49.9835 62.913 49.6706 63.4231 49.149L64.8371 50.5512C63.8981 51.5248 62.3569 52 60.9892 52C57.9062 52 56.0751 50.0993 56.0751 47.2249C56.0751 44.5014 57.9295 42.5428 60.8269 42.5428C63.8172 42.5428 65.6831 44.397 65.3469 48.0712H58.3582V48.0828Z" fill="#8B8B8B"/>
<path d="M73.8246 35.7968C81.5005 35.7968 87.7231 29.5744 87.7231 21.8986C87.7231 14.2225 81.5005 8.00003 73.8246 8.00003C66.1487 8.00003 59.9261 14.2225 59.9261 21.8986C59.9261 29.5744 66.1487 35.7968 73.8246 35.7968Z" fill="#26A17B"/>
<path d="M75.3028 23.1793C75.2114 23.1793 74.7085 23.2096 73.6112 23.2096C72.7273 23.2096 72.1025 23.1793 71.8892 23.1793C68.4908 23.0267 65.961 22.4325 65.961 21.7315C65.961 21.0305 68.4908 20.4362 71.8892 20.2837V22.585C72.1178 22.6001 72.7426 22.6459 73.6265 22.6459C74.6781 22.6459 75.2114 22.6001 75.3028 22.585V20.2837C78.686 20.4362 81.2158 21.0305 81.2158 21.7315C81.2158 22.4476 78.686 23.0267 75.3028 23.1793ZM75.3028 20.055V17.9978H80.0271V14.8431H67.165V17.9978H71.8892V20.055C68.0488 20.2227 65.1686 20.9847 65.1686 21.8991C65.1686 22.8133 68.0641 23.5756 71.9044 23.7429V30.357H75.3181V23.7429C79.1432 23.5756 82.0235 22.8133 82.0235 21.8991C82.0235 20.9847 79.1432 20.2227 75.3028 20.055Z" fill="white"/>
</svg>
